10lbsSpring1
version=1
nRows=33
nColumns=28
inDegrees=yes
endheader
time	ground_force1_vx	ground_force1_vy	ground_force1_vz	ground_force1_px	ground_force1_py	ground_force1_pz	ground_torque1_x	ground_torque1_y	ground_torque1_z	ground_force2_vx	ground_force2_vy	ground_force2_vz	ground_force2_px	ground_force2_py	ground_force2_pz	ground_torque2_x	ground_torque2_y	ground_torque2_z	ground_force3_vx	ground_force3_vy	ground_force3_vz	ground_force3_px	ground_force3_py	ground_force3_pz	ground_torque3_x	ground_torque3_y	ground_torque3_z
7.807000	0.165848	-0.680229	-0.173129	-0.203000	0.000000	0.001500	0.078365	0.069496	-0.007410	0.090717	60.032249	0.348534	-0.183219	0.000000	-0.606697	0.000001	-1.286461	-0.000000	-0.124647	-2.125235	-0.362061	0.200000	0.000000	-0.300000	0.038158	0.060657	0.189565	
7.808000	0.094042	-0.387370	-0.130994	-0.203000	0.000000	0.001500	0.043348	0.086077	-0.029692	0.044499	59.117893	0.157263	-0.184879	0.000000	-0.605762	0.000003	-1.358177	-0.000001	0.043858	-1.826087	-0.363419	0.200000	0.000000	-0.300000	-0.032358	0.046031	0.125221	
7.809000	0.130868	-1.197824	-0.295076	-0.203000	0.000000	0.001500	0.105974	0.197356	-0.076926	0.211513	59.766167	0.296418	-0.184021	0.000000	-0.603613	0.000002	-1.328496	-0.000001	0.315443	-2.646352	-0.400329	0.200000	0.000000	-0.300000	-0.062115	-0.008101	0.040559	
7.810000	-0.060502	-0.909615	-0.114125	-0.203000	0.000000	0.001500	0.052416	0.081079	-0.043534	0.162586	60.393330	0.304901	-0.182965	0.000000	-0.603939	0.000002	-1.286589	-0.000000	0.117423	-2.356931	-0.487497	0.200000	0.000000	-0.300000	-0.081204	0.006809	-0.028410	
7.811000	0.095432	-0.386456	-0.001359	-0.203000	0.000000	0.001500	0.048346	0.006340	0.046575	0.081666	59.606033	0.421457	-0.185130	0.000000	-0.603601	0.000000	-1.283988	-0.000000	0.109026	-0.790316	-0.477406	0.200000	0.000000	-0.300000	-0.091152	0.034888	0.071085	
7.812000	0.101061	-1.326536	-0.099222	-0.203000	0.000000	0.001500	0.050040	0.070332	0.096814	-0.228286	59.830624	0.524485	-0.184069	0.000000	-0.603978	-0.000000	-1.290601	-0.000001	-0.003898	-0.415657	-0.328027	0.200000	0.000000	-0.300000	-0.135057	0.019627	0.147617	
7.813000	0.038906	-1.395461	-0.366617	-0.203000	0.000000	0.001500	-0.069241	0.143935	0.006741	-0.137311	59.701466	0.600001	-0.183584	0.000000	-0.600502	0.000004	-1.300515	-0.000001	-0.034581	-1.796206	-0.304892	0.200000	0.000000	-0.300000	-0.227723	0.080662	0.010429	
7.814000	0.310473	-0.326101	-0.378505	-0.203000	0.000000	0.001500	-0.013841	0.109331	-0.098305	-0.178999	59.089085	0.523791	-0.184475	0.000000	-0.603290	0.000003	-1.320846	-0.000000	-0.061427	-1.666667	-0.426588	0.200000	0.000000	-0.300000	-0.149264	0.094815	0.054980	
7.815000	0.153479	0.354986	-0.091025	-0.203000	0.000000	0.001500	-0.019042	0.096601	-0.105091	-0.123795	58.011742	0.567481	-0.184048	0.000000	-0.603246	-0.000001	-1.292930	0.000000	-0.101950	-2.210274	-0.574604	0.200000	0.000000	-0.300000	-0.109236	0.015751	0.226604	
7.816000	0.074412	-0.157731	0.006517	-0.203000	0.000000	0.001500	0.036595	0.047114	-0.044640	0.376334	57.839363	0.264930	-0.180549	0.000000	-0.600429	0.000003	-1.275066	-0.000001	-0.079776	-2.947688	-0.504692	0.200000	0.000000	-0.300000	-0.070548	-0.006828	0.260461	
7.817000	-0.236791	-0.942117	0.019259	-0.203000	0.000000	0.001500	0.177303	0.045533	-0.104237	0.386740	59.276089	0.440078	-0.183167	0.000000	-0.602189	0.000001	-1.311075	-0.000001	0.139090	-1.539619	-0.177290	0.200000	0.000000	-0.300000	-0.200940	0.043940	0.249489	
7.818000	-0.116970	-0.456715	-0.170595	-0.203000	0.000000	0.001500	0.106142	0.081652	0.004325	0.003316	60.318531	0.836574	-0.186047	0.000000	-0.601285	0.000001	-1.354921	-0.000001	-0.058571	-1.592806	-0.195566	0.200000	0.000000	-0.300000	-0.282140	0.077920	0.199886	
7.819000	-0.001331	-0.641913	0.031633	-0.203000	0.000000	0.001500	0.017711	0.032507	-0.114956	-0.141289	59.905231	0.345230	-0.184741	0.000000	-0.600767	0.000003	-1.305386	0.000000	-0.100113	-2.128085	-0.445555	0.200000	0.000000	-0.300000	-0.190722	0.060605	0.153618	
7.820000	-0.005622	-1.910393	-0.040947	-0.203000	0.000000	0.001500	0.012513	0.076958	-0.281049	-0.082734	59.013000	0.206599	-0.182319	0.000000	-0.601116	0.000003	-1.298414	-0.000001	-0.014557	-1.822923	-0.305030	0.200000	0.000000	-0.300000	-0.023531	0.059408	0.117731	
7.821000	-0.005793	-1.369207	-0.172763	-0.203000	0.000000	0.001500	-0.033704	0.034152	-0.136598	-0.204825	59.214272	0.920305	-0.183515	0.000000	-0.605388	0.000003	-1.310370	-0.000000	0.255422	-2.259828	-0.141336	0.200000	0.000000	-0.300000	0.060069	0.028960	0.154155	
7.822000	0.095088	-0.127590	-0.033254	-0.203000	0.000000	0.001500	-0.032651	0.046002	-0.041934	-0.371000	58.240395	0.960684	-0.183581	0.000000	-0.604616	0.000002	-1.268308	-0.000001	0.007554	-2.053987	-0.055495	0.200000	0.000000	-0.300000	-0.032415	0.004101	0.159271	
7.823000	0.423085	-0.353829	-0.190606	-0.203000	0.000000	0.001500	-0.062309	0.094892	-0.109929	-0.195849	57.709576	0.479093	-0.182344	0.000000	-0.603496	0.000003	-1.270799	0.000000	0.109753	-2.001536	-0.537840	0.200000	0.000000	-0.300000	-0.008398	0.000215	0.064846	
7.824000	0.418270	-0.609870	-0.330507	-0.203000	0.000000	0.001500	0.052400	0.035924	-0.036544	0.013807	57.888062	0.307430	-0.183220	0.000000	-0.604408	0.000002	-1.317022	-0.000001	-0.034437	-2.104229	-0.330920	0.200000	0.000000	-0.300000	0.012034	0.022488	0.095783	
7.825000	-0.095751	-1.197939	-0.300165	-0.203000	0.000000	0.001500	0.165293	0.081748	0.022486	-0.004445	57.223709	0.328131	-0.182375	0.000000	-0.605618	0.000003	-1.246486	-0.000000	0.068530	-3.183531	-0.340362	0.200000	0.000000	-0.300000	-0.063706	0.011367	0.186389	
7.826000	-0.096675	-1.426431	-0.325587	-0.203000	0.000000	0.001500	0.069711	0.137490	-0.055382	-0.353449	57.681641	0.189469	-0.182835	0.000000	-0.604407	0.000001	-1.231661	-0.000001	0.324125	-1.798257	-0.263949	0.200000	0.000000	-0.300000	-0.111380	0.042363	0.191780	
7.827000	0.157790	-1.680439	-0.303263	-0.203000	0.000000	0.001500	-0.050695	0.110019	-0.018235	-0.323785	57.811443	0.148759	-0.184518	0.000000	-0.602970	0.000002	-1.261266	-0.000001	0.174549	-2.310670	-0.012319	0.200000	0.000000	-0.300000	-0.108046	0.053914	0.137182	
7.828000	0.581268	-1.624215	-0.365032	-0.203000	0.000000	0.001500	-0.030643	0.132177	-0.027884	-0.200881	57.915199	0.231201	-0.184730	0.000000	-0.603175	0.000004	-1.281182	-0.000000	-0.002560	-2.209354	-0.343957	0.200000	0.000000	-0.300000	-0.140473	0.047413	0.217564	
7.829000	0.270332	-0.966746	-0.457139	-0.203000	0.000000	0.001500	0.009141	0.102608	-0.107242	-0.109588	57.680943	0.667470	-0.181575	0.000000	-0.603363	0.000004	-1.322030	-0.000001	-0.164977	-0.997416	-0.501284	0.200000	0.000000	-0.300000	-0.009176	0.055901	0.124244	
7.830000	-0.060785	-1.553889	-0.498278	-0.203000	0.000000	0.001500	0.226986	0.090412	-0.101997	-0.137689	57.681080	0.446895	-0.181719	0.000000	-0.602704	0.000002	-1.287275	0.000000	-0.291576	-2.026099	-0.398124	0.200000	0.000000	-0.300000	-0.046735	0.051578	0.101509	
7.831000	0.203180	-1.398483	-0.207536	-0.203000	0.000000	0.001500	0.062716	0.083976	-0.032459	-0.179489	57.938385	0.283571	-0.183330	0.000000	-0.601897	0.000003	-1.192184	-0.000001	-0.069690	-1.539756	-0.567438	0.200000	0.000000	-0.300000	-0.071056	0.013470	-0.022857	
7.832000	0.293794	-0.965931	-0.157219	-0.203000	0.000000	0.001500	-0.064414	0.085632	-0.012993	-0.511567	58.397743	0.328572	-0.181737	0.000000	-0.603120	0.000003	-1.265092	-0.000000	-0.025363	-0.949263	-0.482974	0.200000	0.000000	-0.300000	-0.058230	0.079607	0.017776	
7.833000	0.350951	-0.662027	-0.209530	-0.203000	0.000000	0.001500	-0.032361	0.115986	-0.064904	-0.642129	58.269245	0.173516	-0.181428	0.000000	-0.603984	0.000003	-1.308356	-0.000000	0.167176	-0.846315	-0.510952	0.200000	0.000000	-0.300000	0.016238	0.078449	0.131031	
7.834000	0.193546	-0.562915	-0.125601	-0.203000	0.000000	0.001500	0.099160	0.147487	-0.148822	-0.383408	58.038368	0.262855	-0.181293	0.000000	-0.603060	0.000001	-1.285495	-0.000000	0.059133	-1.715672	-0.453309	0.200000	0.000000	-0.300000	-0.119463	0.060777	0.116962	
7.835000	0.094083	-2.469147	-0.054363	-0.203000	0.000000	0.001500	0.116809	0.135556	-0.034846	-0.314706	58.037109	0.020743	-0.179630	0.000000	-0.600794	-0.000000	-1.226872	-0.000000	0.049556	-2.619817	-0.359085	0.200000	0.000000	-0.300000	-0.137674	0.065612	0.232497	
7.836000	0.185069	-1.907982	-0.048003	-0.203000	0.000000	0.001500	-0.005829	0.066580	0.103202	-0.112339	58.420204	0.266282	-0.179949	0.000000	-0.600626	0.000000	-1.233299	-0.000000	-0.054733	-2.028018	-0.342255	0.200000	0.000000	-0.300000	-0.184064	0.060594	0.232556	
7.837000	-0.178718	-1.504578	-0.255126	-0.203000	0.000000	0.001500	-0.138059	0.077395	0.030584	-0.206866	58.987614	0.069370	-0.182387	0.000000	-0.601306	0.000001	-1.271735	-0.000001	0.016238	-2.305628	-0.474382	0.200000	0.000000	-0.300000	-0.067877	0.046234	0.113898	
7.838000	0.000090	-0.229423	0.057324	-0.203000	0.000000	0.001500	-0.025883	0.035205	0.044928	-0.103166	58.502857	0.211977	-0.181883	0.000000	-0.602690	0.000001	-1.290836	-0.000000	-0.205996	-3.105718	-0.278597	0.200000	0.000000	-0.300000	-0.083716	0.004793	0.077211	
7.839000	-0.034402	-0.888255	-0.032224	-0.203000	0.000000	0.001500	0.030851	0.051489	-0.037362	0.124502	57.788044	0.216108	-0.180916	0.000000	-0.602045	0.000002	-1.243436	-0.000001	0.065335	-2.747443	-0.455219	0.200000	0.000000	-0.300000	0.098606	0.029898	0.053855	
